<svg width="50" height="371" viewBox="0 0 50 371" fill="none" xmlns="http://www.w3.org/2000/svg">
<mask id="path-1-inside-1_669_544" fill="white">
<path d="M4.93608 221.784C1.63352 225.236 -6.16038e-06 229.873 -5.90592e-06 235.694C-5.64997e-06 241.55 1.63353 246.22 4.93608 249.639C8.23864 253.091 12.9261 254.885 19.1051 255.054C20.4546 255.088 22.4432 255.122 25.071 255.122C27.6633 255.122 29.6164 255.088 30.9659 255.054C37.2514 254.885 42.0099 253.125 45.206 249.774C48.402 246.423 50 241.719 50 235.694C50 229.704 48.402 224.999 45.206 221.648C42.0099 218.264 37.2869 216.504 30.9659 216.335C28.267 216.233 26.3139 216.199 25.071 216.199C23.7926 216.199 21.7685 216.233 19.1051 216.335C12.9617 216.504 8.23864 218.332 4.93608 221.784ZM30.6108 225.913C34.446 226.048 37.2869 226.962 39.1335 228.688C40.9801 230.415 41.9034 232.75 41.9034 235.694C41.9034 238.639 40.9801 241.008 39.098 242.734C37.2159 244.46 34.375 245.408 30.6108 245.476C29.2258 245.51 27.3437 245.543 25 245.543C22.5852 245.543 20.7031 245.51 19.3892 245.476C15.5895 245.374 12.7486 244.46 10.902 242.7C9.01986 240.94 8.0966 238.605 8.0966 235.694C8.0966 232.818 9.01986 230.516 10.902 228.756C12.7841 226.996 15.625 226.048 19.3892 225.913C22.088 225.812 23.9347 225.778 25 225.778C25.9943 225.778 27.8409 225.845 30.6108 225.913Z"/>
<path d="M2.02411 32.6209C1.13633 33.1624 0.710212 33.8393 0.710212 34.6855L0.710213 40.6423C0.710213 40.9807 0.852241 41.3192 1.13633 41.59C1.42042 41.8607 1.77554 42.0299 2.16617 42.0299C2.2727 42.0299 2.52131 41.9623 2.94745 41.8269L21.4844 31.8424C22.2301 31.4363 22.2301 30.4548 21.4844 30.0486L15.2699 26.5964C14.5596 26.1902 13.6719 26.1902 12.9616 26.5964L2.02411 32.6209Z"/>
<path d="M4.65198 338.923C2.02414 341.97 0.710226 346.166 0.710226 351.48L0.710227 369.215C0.710227 369.689 0.887792 370.095 1.20739 370.366C1.527 370.637 1.95313 370.806 2.45029 370.806L8.48722 370.806L8.48722 351.785C8.48722 349.145 9.16192 347.148 10.5114 345.862C11.8608 344.576 13.7429 343.899 16.1222 343.899C18.5724 343.899 20.4545 344.576 21.6974 345.93C22.9758 347.283 23.615 349.213 23.615 351.785L23.615 370.806L47.6207 370.806C48.0824 370.806 48.473 370.637 48.7926 370.332C49.1122 370.028 49.2898 369.655 49.2898 369.215L49.2898 362.852C49.2898 362.378 49.1477 361.972 48.8281 361.668C48.544 361.363 48.1179 361.194 47.6207 361.194L31.392 361.194L31.392 351.48C31.392 346.133 30.1136 341.97 27.5568 338.923C25 335.877 21.2003 334.354 16.1932 334.354C11.1506 334.354 7.31533 335.877 4.65198 338.923Z"/>
<path d="M29.3679 285.346C28.338 282.571 26.7045 280.404 24.3963 278.848C22.088 277.291 19.2827 276.546 15.9091 276.546C11.044 276.546 7.31533 278.069 4.65197 281.149C2.02413 284.229 0.710223 288.46 0.710224 293.875L0.710224 311.001C0.710224 311.475 0.88779 311.881 1.20739 312.152C1.52699 312.422 1.95313 312.592 2.45029 312.592L8.48722 312.592L8.48722 294.078C8.48722 291.438 9.12643 289.441 10.4048 288.121C11.6832 286.801 13.4943 286.124 15.8381 286.124C18.1818 286.124 19.9929 286.801 21.2003 288.121C22.4432 289.441 23.0469 291.438 23.0469 294.078L23.0469 312.592L47.6207 312.592C48.0824 312.592 48.473 312.422 48.7926 312.118C49.1122 311.813 49.2898 311.441 49.2898 311.001L49.2898 304.909C49.2898 304.435 49.1122 304.029 48.7926 303.724C48.473 303.419 48.0824 303.25 47.6207 303.25L30.9659 303.25L30.9659 294.18L47.4077 285.718C47.9758 285.414 48.402 285.041 48.7571 284.669C49.1122 284.297 49.2898 283.721 49.2898 283.011L49.2898 276.918C49.2898 276.58 49.1477 276.241 48.8636 275.971C48.5795 275.7 48.2244 275.531 47.8338 275.531C47.5852 275.531 47.3366 275.598 47.0525 275.734L29.3679 285.346Z"/>
<path d="M1.13633 1.31372C0.852239 1.58448 0.710211 1.92292 0.710211 2.26138L0.710211 8.2859C0.710211 8.75973 0.852239 9.16588 1.13633 9.50433C1.42042 9.84279 1.70451 10.0797 2.02411 10.2489L29.1903 25.3102C30.0071 25.7841 30.9659 26.021 31.9247 26.021L47.6562 26.0548C48.1179 26.0548 48.5085 25.8856 48.8281 25.581C49.1477 25.2764 49.3253 24.9041 49.3253 24.4641L49.3253 18.3719C49.3253 17.898 49.1832 17.4919 48.8636 17.1873C48.5795 16.8827 48.1534 16.7135 47.6562 16.7135L33.1321 16.7135C32.4219 16.7135 31.7116 16.5442 31.0724 16.2058L21.6619 11.1628C21.5909 11.0951 21.5554 11.0274 21.4844 10.9935L2.94744 1.0091C2.52131 0.873713 2.2727 0.806038 2.16617 0.806038C1.74003 0.87373 1.42042 1.00911 1.13633 1.31372Z"/>
<path d="M0.710218 175.348L0.710219 191.492C0.710219 191.966 0.887785 192.372 1.20739 192.643C1.52699 192.914 1.95313 193.083 2.45028 193.083L8.77128 193.083L8.77128 175.686C8.77128 171.997 9.65906 169.256 11.4346 167.563C13.2102 165.837 16.0156 164.923 19.8153 164.856C22.5142 164.754 24.2187 164.72 24.9645 164.72C25.6747 164.72 27.3792 164.754 30.1846 164.856C34.1619 164.957 37.0028 165.803 38.7074 167.428C40.4119 169.052 41.2642 171.692 41.2642 175.382L41.2642 193.151L47.6562 193.151C48.1179 193.151 48.5085 192.981 48.8281 192.677C49.1477 192.372 49.3253 192 49.3253 191.56L49.3253 175.077C49.3253 168.511 47.7983 163.637 44.7088 160.49C41.6193 157.342 36.8608 155.683 30.3622 155.48C27.6633 155.379 25.8878 155.345 25 155.345C24.0767 155.345 22.2656 155.379 19.6022 155.48C6.99571 155.683 0.710218 162.317 0.710218 175.348Z"/>
<path d="M0.710214 62.9804L0.710214 79.1247C0.710215 92.1214 6.99571 98.789 19.6022 99.0259C22.3011 99.1275 24.0767 99.1613 25 99.1613C25.8878 99.1613 27.6633 99.1275 30.3622 99.0259C36.8253 98.8567 41.6193 97.1983 44.7088 94.0168C47.7983 90.8691 49.3253 85.9954 49.3253 79.4293L49.3253 62.9465C49.3253 62.5065 49.1477 62.1342 48.8281 61.8296C48.5085 61.525 48.1179 61.3558 47.6562 61.3558L23.686 61.3558C23.1889 61.3558 22.7628 61.525 22.4787 61.8296C22.1946 62.1342 22.017 62.5404 22.017 63.0142L22.017 77.2294C22.017 77.6694 22.1946 78.0417 22.5142 78.3463C22.8338 78.6509 23.2244 78.8201 23.686 78.8201L28.4446 78.8201C28.9062 78.8201 29.2969 78.6509 29.6165 78.3463C29.9361 78.0417 30.1136 77.6694 30.1136 77.2294L30.1136 69.0387L41.2642 69.0387L41.2642 79.1247C41.2642 82.7801 40.4119 85.42 38.7074 87.0784C37.0028 88.703 34.1619 89.583 30.1846 89.6507C27.4148 89.7522 25.6747 89.7861 24.9645 89.7861C24.2187 89.7861 22.5142 89.7522 19.8153 89.6507C16.0156 89.5491 13.2457 88.6692 11.4346 86.9431C9.62355 85.2169 8.77127 82.5093 8.77127 78.8201L8.77127 61.4235L2.45028 61.4235C1.95312 61.4235 1.52698 61.5589 1.20738 61.8635C0.887779 62.1004 0.710214 62.4727 0.710214 62.9804Z"/>
<path d="M0.710216 124.038L0.710217 130.401C0.710217 130.841 0.852279 131.213 1.17188 131.518C1.45597 131.822 1.88207 131.992 2.37923 131.992L47.6207 131.992C48.0824 131.992 48.473 131.822 48.7926 131.518C49.1122 131.213 49.2898 130.841 49.2898 130.401L49.2898 124.038C49.2898 123.564 49.1122 123.158 48.7926 122.887C48.473 122.616 48.0824 122.447 47.6207 122.447L2.37923 122.447C1.88207 122.447 1.45597 122.582 1.17188 122.887C0.852279 123.158 0.710216 123.564 0.710216 124.038Z"/>
</mask>
<path d="M4.93608 221.784C1.63352 225.236 -6.16038e-06 229.873 -5.90592e-06 235.694C-5.64997e-06 241.55 1.63353 246.22 4.93608 249.639C8.23864 253.091 12.9261 254.885 19.1051 255.054C20.4546 255.088 22.4432 255.122 25.071 255.122C27.6633 255.122 29.6164 255.088 30.9659 255.054C37.2514 254.885 42.0099 253.125 45.206 249.774C48.402 246.423 50 241.719 50 235.694C50 229.704 48.402 224.999 45.206 221.648C42.0099 218.264 37.2869 216.504 30.9659 216.335C28.267 216.233 26.3139 216.199 25.071 216.199C23.7926 216.199 21.7685 216.233 19.1051 216.335C12.9617 216.504 8.23864 218.332 4.93608 221.784ZM30.6108 225.913C34.446 226.048 37.2869 226.962 39.1335 228.688C40.9801 230.415 41.9034 232.75 41.9034 235.694C41.9034 238.639 40.9801 241.008 39.098 242.734C37.2159 244.46 34.375 245.408 30.6108 245.476C29.2258 245.51 27.3437 245.543 25 245.543C22.5852 245.543 20.7031 245.51 19.3892 245.476C15.5895 245.374 12.7486 244.46 10.902 242.7C9.01986 240.94 8.0966 238.605 8.0966 235.694C8.0966 232.818 9.01986 230.516 10.902 228.756C12.7841 226.996 15.625 226.048 19.3892 225.913C22.088 225.812 23.9347 225.778 25 225.778C25.9943 225.778 27.8409 225.845 30.6108 225.913Z" stroke="url(#paint0_linear_669_544)" stroke-width="3" mask="url(#path-1-inside-1_669_544)"/>
<path d="M2.02411 32.6209C1.13633 33.1624 0.710212 33.8393 0.710212 34.6855L0.710213 40.6423C0.710213 40.9807 0.852241 41.3192 1.13633 41.59C1.42042 41.8607 1.77554 42.0299 2.16617 42.0299C2.2727 42.0299 2.52131 41.9623 2.94745 41.8269L21.4844 31.8424C22.2301 31.4363 22.2301 30.4548 21.4844 30.0486L15.2699 26.5964C14.5596 26.1902 13.6719 26.1902 12.9616 26.5964L2.02411 32.6209Z" stroke="url(#paint1_linear_669_544)" stroke-width="3" mask="url(#path-1-inside-1_669_544)"/>
<path d="M4.65198 338.923C2.02414 341.97 0.710226 346.166 0.710226 351.48L0.710227 369.215C0.710227 369.689 0.887792 370.095 1.20739 370.366C1.527 370.637 1.95313 370.806 2.45029 370.806L8.48722 370.806L8.48722 351.785C8.48722 349.145 9.16192 347.148 10.5114 345.862C11.8608 344.576 13.7429 343.899 16.1222 343.899C18.5724 343.899 20.4545 344.576 21.6974 345.93C22.9758 347.283 23.615 349.213 23.615 351.785L23.615 370.806L47.6207 370.806C48.0824 370.806 48.473 370.637 48.7926 370.332C49.1122 370.028 49.2898 369.655 49.2898 369.215L49.2898 362.852C49.2898 362.378 49.1477 361.972 48.8281 361.668C48.544 361.363 48.1179 361.194 47.6207 361.194L31.392 361.194L31.392 351.48C31.392 346.133 30.1136 341.97 27.5568 338.923C25 335.877 21.2003 334.354 16.1932 334.354C11.1506 334.354 7.31533 335.877 4.65198 338.923Z" stroke="url(#paint2_linear_669_544)" stroke-width="3" mask="url(#path-1-inside-1_669_544)"/>
<path d="M29.3679 285.346C28.338 282.571 26.7045 280.404 24.3963 278.848C22.088 277.291 19.2827 276.546 15.9091 276.546C11.044 276.546 7.31533 278.069 4.65197 281.149C2.02413 284.229 0.710223 288.46 0.710224 293.875L0.710224 311.001C0.710224 311.475 0.88779 311.881 1.20739 312.152C1.52699 312.422 1.95313 312.592 2.45029 312.592L8.48722 312.592L8.48722 294.078C8.48722 291.438 9.12643 289.441 10.4048 288.121C11.6832 286.801 13.4943 286.124 15.8381 286.124C18.1818 286.124 19.9929 286.801 21.2003 288.121C22.4432 289.441 23.0469 291.438 23.0469 294.078L23.0469 312.592L47.6207 312.592C48.0824 312.592 48.473 312.422 48.7926 312.118C49.1122 311.813 49.2898 311.441 49.2898 311.001L49.2898 304.909C49.2898 304.435 49.1122 304.029 48.7926 303.724C48.473 303.419 48.0824 303.25 47.6207 303.25L30.9659 303.25L30.9659 294.18L47.4077 285.718C47.9758 285.414 48.402 285.041 48.7571 284.669C49.1122 284.297 49.2898 283.721 49.2898 283.011L49.2898 276.918C49.2898 276.58 49.1477 276.241 48.8636 275.971C48.5795 275.7 48.2244 275.531 47.8338 275.531C47.5852 275.531 47.3366 275.598 47.0525 275.734L29.3679 285.346Z" stroke="url(#paint3_linear_669_544)" stroke-width="3" mask="url(#path-1-inside-1_669_544)"/>
<path d="M1.13633 1.31372C0.852239 1.58448 0.710211 1.92292 0.710211 2.26138L0.710211 8.2859C0.710211 8.75973 0.852239 9.16588 1.13633 9.50433C1.42042 9.84279 1.70451 10.0797 2.02411 10.2489L29.1903 25.3102C30.0071 25.7841 30.9659 26.021 31.9247 26.021L47.6562 26.0548C48.1179 26.0548 48.5085 25.8856 48.8281 25.581C49.1477 25.2764 49.3253 24.9041 49.3253 24.4641L49.3253 18.3719C49.3253 17.898 49.1832 17.4919 48.8636 17.1873C48.5795 16.8827 48.1534 16.7135 47.6562 16.7135L33.1321 16.7135C32.4219 16.7135 31.7116 16.5442 31.0724 16.2058L21.6619 11.1628C21.5909 11.0951 21.5554 11.0274 21.4844 10.9935L2.94744 1.0091C2.52131 0.873713 2.2727 0.806038 2.16617 0.806038C1.74003 0.87373 1.42042 1.00911 1.13633 1.31372Z" stroke="url(#paint4_linear_669_544)" stroke-width="3" mask="url(#path-1-inside-1_669_544)"/>
<path d="M0.710218 175.348L0.710219 191.492C0.710219 191.966 0.887785 192.372 1.20739 192.643C1.52699 192.914 1.95313 193.083 2.45028 193.083L8.77128 193.083L8.77128 175.686C8.77128 171.997 9.65906 169.256 11.4346 167.563C13.2102 165.837 16.0156 164.923 19.8153 164.856C22.5142 164.754 24.2187 164.72 24.9645 164.72C25.6747 164.72 27.3792 164.754 30.1846 164.856C34.1619 164.957 37.0028 165.803 38.7074 167.428C40.4119 169.052 41.2642 171.692 41.2642 175.382L41.2642 193.151L47.6562 193.151C48.1179 193.151 48.5085 192.981 48.8281 192.677C49.1477 192.372 49.3253 192 49.3253 191.56L49.3253 175.077C49.3253 168.511 47.7983 163.637 44.7088 160.49C41.6193 157.342 36.8608 155.683 30.3622 155.48C27.6633 155.379 25.8878 155.345 25 155.345C24.0767 155.345 22.2656 155.379 19.6022 155.48C6.99571 155.683 0.710218 162.317 0.710218 175.348Z" stroke="url(#paint5_linear_669_544)" stroke-width="3" mask="url(#path-1-inside-1_669_544)"/>
<path d="M0.710214 62.9804L0.710214 79.1247C0.710215 92.1214 6.99571 98.789 19.6022 99.0259C22.3011 99.1275 24.0767 99.1613 25 99.1613C25.8878 99.1613 27.6633 99.1275 30.3622 99.0259C36.8253 98.8567 41.6193 97.1983 44.7088 94.0168C47.7983 90.8691 49.3253 85.9954 49.3253 79.4293L49.3253 62.9465C49.3253 62.5065 49.1477 62.1342 48.8281 61.8296C48.5085 61.525 48.1179 61.3558 47.6562 61.3558L23.686 61.3558C23.1889 61.3558 22.7628 61.525 22.4787 61.8296C22.1946 62.1342 22.017 62.5404 22.017 63.0142L22.017 77.2294C22.017 77.6694 22.1946 78.0417 22.5142 78.3463C22.8338 78.6509 23.2244 78.8201 23.686 78.8201L28.4446 78.8201C28.9062 78.8201 29.2969 78.6509 29.6165 78.3463C29.9361 78.0417 30.1136 77.6694 30.1136 77.2294L30.1136 69.0387L41.2642 69.0387L41.2642 79.1247C41.2642 82.7801 40.4119 85.42 38.7074 87.0784C37.0028 88.703 34.1619 89.583 30.1846 89.6507C27.4148 89.7522 25.6747 89.7861 24.9645 89.7861C24.2187 89.7861 22.5142 89.7522 19.8153 89.6507C16.0156 89.5491 13.2457 88.6692 11.4346 86.9431C9.62355 85.2169 8.77127 82.5093 8.77127 78.8201L8.77127 61.4235L2.45028 61.4235C1.95312 61.4235 1.52698 61.5589 1.20738 61.8635C0.887779 62.1004 0.710214 62.4727 0.710214 62.9804Z" stroke="url(#paint6_linear_669_544)" stroke-width="3" mask="url(#path-1-inside-1_669_544)"/>
<path d="M0.710216 124.038L0.710217 130.401C0.710217 130.841 0.852279 131.213 1.17188 131.518C1.45597 131.822 1.88207 131.992 2.37923 131.992L47.6207 131.992C48.0824 131.992 48.473 131.822 48.7926 131.518C49.1122 131.213 49.2898 130.841 49.2898 130.401L49.2898 124.038C49.2898 123.564 49.1122 123.158 48.7926 122.887C48.473 122.616 48.0824 122.447 47.6207 122.447L2.37923 122.447C1.88207 122.447 1.45597 122.582 1.17188 122.887C0.852279 123.158 0.710216 123.564 0.710216 124.038Z" stroke="url(#paint7_linear_669_544)" stroke-width="3" mask="url(#path-1-inside-1_669_544)"/>
<defs>
<linearGradient id="paint0_linear_669_544" x1="25" y1="369.034" x2="25" y2="19.5463" gradientUnits="userSpaceOnUse">
<stop stop-color="#7116F2"/>
<stop offset="1" stop-color="#43AEFF"/>
</linearGradient>
<linearGradient id="paint1_linear_669_544" x1="25" y1="369.034" x2="25" y2="19.5463" gradientUnits="userSpaceOnUse">
<stop stop-color="#7116F2"/>
<stop offset="1" stop-color="#43AEFF"/>
</linearGradient>
<linearGradient id="paint2_linear_669_544" x1="25" y1="369.034" x2="25" y2="19.5463" gradientUnits="userSpaceOnUse">
<stop stop-color="#7116F2"/>
<stop offset="1" stop-color="#43AEFF"/>
</linearGradient>
<linearGradient id="paint3_linear_669_544" x1="25" y1="369.034" x2="25" y2="19.5463" gradientUnits="userSpaceOnUse">
<stop stop-color="#7116F2"/>
<stop offset="1" stop-color="#43AEFF"/>
</linearGradient>
<linearGradient id="paint4_linear_669_544" x1="25" y1="369.034" x2="25" y2="19.5463" gradientUnits="userSpaceOnUse">
<stop stop-color="#7116F2"/>
<stop offset="1" stop-color="#43AEFF"/>
</linearGradient>
<linearGradient id="paint5_linear_669_544" x1="25" y1="369.034" x2="25" y2="19.5463" gradientUnits="userSpaceOnUse">
<stop stop-color="#7116F2"/>
<stop offset="1" stop-color="#43AEFF"/>
</linearGradient>
<linearGradient id="paint6_linear_669_544" x1="25" y1="369.034" x2="25" y2="19.5463" gradientUnits="userSpaceOnUse">
<stop stop-color="#7116F2"/>
<stop offset="1" stop-color="#43AEFF"/>
</linearGradient>
<linearGradient id="paint7_linear_669_544" x1="25" y1="369.034" x2="25" y2="19.5463" gradientUnits="userSpaceOnUse">
<stop stop-color="#7116F2"/>
<stop offset="1" stop-color="#43AEFF"/>
</linearGradient>
</defs>
</svg>
